# xmcd
#
# Track frame offsets:
#	150
#	10535
#	21028
#	34146
#	42999
#	55846
#	69456
#	81925
#	93972
#	106044
#	114951
#	125479
#	140572
#	152628
#	164084
#	176225
#	188381
#	198535
#	210243
#	218749
#
# Disc length: 3067 seconds
#
# Revision: 0
# Processed by: cddbd v1.5.2PL0 Copyright (c) Steve Scherf et al.
# Submitted via: EZCDAudioConverter 4.0.2.1
#
DISCID=070bf914
DTITLE=Various Artist - Country Greats CD2
DYEAR=2014
DGENRE=Country
TTITLE0=Slim Whitman - Rose Marie
TTITLE1=Jimmie Rodgers - Kisses Sweeter Than Wine
TTITLE2=Kitty Wells and Red Foley - One by One
TTITLE3=Patsy Cline - When a House is not a Home
TTITLE4=Hank Snow - My Good Gal's Gone
TTITLE5=Kitty Wells - Death at the Bar
TTITLE6=Hank Williams - I'm so Lonesome I could Cry
TTITLE7=Brenda Lee - I'm Sorry
TTITLE8=Bing Crosby - Home on the Range
TTITLE9=Tennessee Ernie Ford - When the Red Red Robin comes Bob Bob Bobbin'
TTITLE10=Pee Wee King and His Golden West Cowboys - Darling Stop Playing with my
TTITLE10=Heart
TTITLE11=Gene Autry - The last Round up
TTITLE12=Johnnie Jack and Tennessee Mountain Boys - A Smile on my Lips (and an A
TTITLE12=che in my Heart)
TTITLE13=Kitty Wells - It wasn't God who made Honky Tonk Angels
TTITLE14=Charlie Monroe - My Saviour's Train
TTITLE15=The Stanley Brothers - Hey Hey Hey
TTITLE16=Red Foley - Square Dance Tennessee
TTITLE17=Roy Acuff - Wabash Cannonball
TTITLE18=Jim Reeves - Oklahoma Hills
TTITLE19=The Sons of the Pioneers - Tumbling Tumbleweeds
EXTD=
EXTT0=
EXTT1=
EXTT2=
EXTT3=
EXTT4=
EXTT5=
EXTT6=
EXTT7=
EXTT8=
EXTT9=
EXTT10=
EXTT11=
EXTT12=
EXTT13=
EXTT14=
EXTT15=
EXTT16=
EXTT17=
EXTT18=
EXTT19=
PLAYORDER=
